<svg width="420" height="420" viewBox="0 0 420 420" fill="none" xmlns="http://www.w3.org/2000/svg">
<g clip-path="url(#clip0_90_272)">
<path d="M418.851 -21.6168L403.281 -12.5953C405.757 -8.43685 408.599 -4.7939 411.964 -1.47744C415.329 1.83902 419.008 4.6228 423.245 7.08008L432.399 -8.26498C429.504 -9.9318 427.011 -11.8392 424.744 -14.0731C422.478 -16.307 420.56 -18.7643 418.851 -21.6168Z" fill="#FFC321"/>
<path d="M378.994 -19.8285L361.802 -14.3641C362.57 -11.9927 363.285 -9.60419 363.999 -7.21565C367.382 4.19435 371.235 17.1165 382.168 27.9079C393.117 38.6993 406.229 42.4797 417.806 45.8133C420.23 46.5179 422.654 47.2052 425.042 47.9785L430.587 31.0182C428.041 30.2105 425.461 29.4716 422.88 28.7155C412 25.5709 402.62 22.8731 394.931 15.295C387.259 7.73421 384.504 -1.52781 381.313 -12.2333C380.563 -14.7765 379.796 -17.3197 378.977 -19.8285H378.994Z" fill="#FFC321"/>
<path d="M325.414 -24.453L315.231 -9.7437C317.184 -8.43774 318.928 -7.01149 320.567 -5.39622C328.238 2.16462 330.993 11.4267 334.184 22.1322C337.566 33.5422 341.42 46.4643 352.352 57.2557C363.302 68.0471 376.413 71.8275 387.991 75.1611C398.853 78.3058 408.251 81.0036 415.923 88.5816C417.562 90.1969 419.009 91.9324 420.334 93.8398L435.259 83.8045C433.324 81.0036 431.11 78.3745 428.704 75.9859C417.754 65.1946 404.642 61.4141 393.065 58.0805C382.185 54.9359 372.804 52.238 365.133 44.66C357.461 37.0992 354.706 27.8371 351.515 17.1317C348.115 5.72168 344.279 -7.20049 333.347 -17.9919C330.941 -20.3804 328.273 -22.5456 325.414 -24.453Z" fill="#FFC321"/>
<path d="M237.45 -22.7148L223.432 -11.4766C224.617 -10.0504 225.89 -8.65847 227.215 -7.3525C238.165 3.4217 251.277 7.21927 262.854 10.5529C273.734 13.6975 283.114 16.3954 290.786 23.9734C298.458 31.5343 301.213 40.7963 304.386 51.5018C307.786 62.9118 311.622 75.8339 322.554 86.6253C333.504 97.4167 346.616 101.197 358.193 104.531C369.073 107.675 378.454 110.373 386.125 117.951C393.797 125.512 396.552 134.774 399.743 145.48C403.125 156.89 406.979 169.812 417.911 180.603C419.236 181.909 420.648 183.164 422.113 184.332L433.498 170.499C432.522 169.709 431.58 168.884 430.691 168.007C423.002 160.429 420.265 151.185 417.074 140.462C413.691 129.052 409.838 116.13 398.906 105.338C387.974 94.547 374.844 90.7666 363.267 87.433C352.387 84.2883 343.007 81.5905 335.335 74.0125C327.663 66.4516 324.908 57.1896 321.717 46.4841C318.317 35.0741 314.482 22.1519 303.549 11.3606C292.6 0.569171 279.488 -3.21122 267.91 -6.54486C257.03 -9.68949 247.65 -12.3873 239.978 -19.9654C239.089 -20.8417 238.235 -21.7697 237.433 -22.732L237.45 -22.7148Z" fill="#FF9C22"/>
<path d="M196.128 -19.6265L178.797 -14.6089L179.233 -13.1311C182.615 -1.72109 186.469 11.2011 197.401 21.9925C208.351 32.7839 221.462 36.5643 233.04 39.8979C243.902 43.0425 253.3 45.7404 260.972 53.3184C268.644 60.8793 271.399 70.1413 274.589 80.8468C277.972 92.2568 281.825 105.179 292.757 115.97C303.69 126.762 316.819 130.542 328.396 133.876C339.276 137.02 348.657 139.718 356.328 147.296C364 154.857 366.755 164.119 369.946 174.825C373.328 186.235 377.182 199.157 388.114 209.948C399.064 220.722 412.175 224.52 423.753 227.854L425.252 228.283L430.343 211.203L428.809 210.756C417.929 207.611 408.549 204.913 400.877 197.335C393.205 189.774 390.45 180.512 387.26 169.807C383.86 158.397 380.024 145.475 369.091 134.683C358.142 123.892 345.03 120.112 333.453 116.778C322.573 113.633 313.192 110.935 305.52 103.357C297.849 95.7966 295.094 86.5346 291.903 75.8291C288.52 64.4191 284.667 51.4969 273.735 40.7056C262.785 29.9142 249.673 26.1338 238.096 22.8001C227.234 19.6555 217.836 16.9576 210.164 9.37961C202.492 1.81877 199.737 -7.44324 196.547 -18.1487L196.093 -19.6437L196.128 -19.6265Z" fill="#FFC321"/>
<path d="M149.153 -23.3181L136.198 -10.9114C143.591 -3.41929 146.433 6.13486 149.432 16.2561C152.815 27.6661 156.668 40.5882 167.6 51.3796C178.55 62.171 191.662 65.9514 203.239 69.2851C214.101 72.4297 223.499 75.1275 231.171 82.7056C238.843 90.2664 241.598 99.5284 244.789 110.234C248.171 121.644 252.024 134.566 262.957 145.357C273.906 156.132 287.018 159.929 298.595 163.263C309.458 166.408 318.856 169.105 326.528 176.683C334.199 184.244 336.954 193.506 340.145 204.212C343.545 215.622 347.381 228.544 358.313 239.335C369.245 250.11 382.375 253.907 393.952 257.241C404.204 260.196 413.899 262.997 421.518 270.283L434.107 257.516C423.279 247.154 410.394 243.425 399.026 240.143C388.146 236.998 378.765 234.3 371.094 226.722C363.422 219.162 360.667 209.9 357.476 199.194C354.076 187.784 350.24 174.862 339.308 164.071C328.358 153.279 315.247 149.499 303.669 146.165C292.807 143.02 283.409 140.323 275.737 132.745C268.065 125.184 265.31 115.922 262.12 105.216C258.737 93.8063 254.884 80.8841 243.952 70.0927C233.002 59.3185 219.89 55.5209 208.313 52.1873C197.45 49.0426 188.052 46.3448 180.381 38.7668C172.709 31.2059 169.954 21.9439 166.763 11.2384C163.433 0.0346083 159.667 -12.6642 149.136 -23.3353L149.153 -23.3181Z" fill="#FF9C22"/>
<path d="M57.3735 -23.8835L45.6392 -10.3427C55.8566 -1.75088 67.155 1.51407 78.0872 4.67588C88.9497 7.8205 98.3476 10.5183 106.019 18.0964C113.691 25.6572 116.446 34.9192 119.619 45.6247C123.019 57.0347 126.855 69.9569 137.787 80.7482C148.737 91.5396 161.849 95.32 173.426 98.6537C184.306 101.798 193.687 104.496 201.358 112.074C209.03 119.635 211.785 128.897 214.976 139.603C218.358 151.013 222.212 163.935 233.144 174.726C244.094 185.517 257.205 189.298 268.783 192.632C279.663 195.776 289.043 198.474 296.715 206.052C304.387 213.613 307.142 222.875 310.332 233.58C313.715 244.99 317.568 257.913 328.5 268.704C339.45 279.495 352.562 283.276 364.139 286.609C375.019 289.754 384.4 292.452 392.071 300.03C399.743 307.591 402.498 316.853 405.689 327.558C408.897 338.332 412.192 349.467 420.928 359.537L434.667 347.972C428.46 340.807 425.81 331.94 423.038 322.541C419.655 311.131 415.802 298.208 404.869 287.417C393.92 276.626 380.808 272.845 369.231 269.512C358.351 266.367 348.97 263.669 341.298 256.091C333.627 248.53 330.872 239.268 327.681 228.563C324.298 217.153 320.445 204.231 309.513 193.439C298.563 182.648 285.451 178.867 273.874 175.534C262.994 172.389 253.614 169.691 245.942 162.113C238.27 154.552 235.515 145.29 232.324 134.585C228.942 123.175 225.089 110.253 214.156 99.4613C203.207 88.6699 190.095 84.8895 178.518 81.5559C167.655 78.4113 158.257 75.7134 150.585 68.1354C142.914 60.5745 140.159 51.3125 136.968 40.607C133.568 29.197 129.732 16.2749 118.8 5.48351C107.85 -5.30787 94.7384 -9.08832 83.161 -12.422C73.6411 -15.1714 64.6442 -17.7661 57.356 -23.8835H57.3735Z" fill="#FFC321"/>
<path d="M13.1198 -19.6937L-4.17651 -14.5214C-1.17755 -4.76099 2.85012 6.47716 12.6665 16.1344C23.5987 26.9086 36.7279 30.7062 48.3053 34.0399C59.1852 37.1845 68.5657 39.8824 76.2375 47.4604C83.9092 55.0212 86.6641 64.2832 89.8549 74.9887C93.2374 86.3987 97.0907 99.3209 108.023 110.112C118.973 120.904 132.084 124.684 143.662 128.018C154.524 131.162 163.922 133.86 171.594 141.421C179.266 148.982 182.021 158.244 185.194 168.949C188.594 180.359 192.43 193.282 203.362 204.073C214.312 214.864 227.423 218.645 239.001 221.978C249.881 225.123 259.261 227.821 266.933 235.382C274.605 242.943 277.36 252.205 280.55 262.91C283.933 274.32 287.786 287.242 298.719 298.034C309.651 308.825 322.78 312.605 334.357 315.939C345.237 319.084 354.618 321.782 362.29 329.36C369.961 336.92 372.716 346.182 375.889 356.888C379.272 368.298 383.125 381.22 394.058 392.011C403.857 401.669 415.26 405.638 425.163 408.594L430.411 391.547C422.234 389.107 413.69 386.152 406.838 379.399C399.166 371.838 396.411 362.576 393.221 351.87C389.838 340.46 385.985 327.538 375.053 316.747C364.103 305.972 350.991 302.175 339.414 298.841C328.534 295.697 319.153 292.999 311.482 285.421C303.81 277.86 301.055 268.598 297.864 257.892C294.482 246.482 290.628 233.56 279.696 222.769C268.764 211.995 255.635 208.197 244.057 204.863C233.195 201.719 223.797 199.021 216.125 191.443C208.453 183.882 205.698 174.62 202.525 163.915C199.125 152.505 195.289 139.582 184.357 128.791C173.407 118 160.296 114.219 148.718 110.886C137.856 107.741 128.458 105.043 120.786 97.4651C113.114 89.9042 110.359 80.6422 107.169 69.9367C103.786 58.5267 99.9328 45.6045 89.0005 34.8131C78.0508 24.0389 64.9391 20.2414 53.3617 16.9077C42.4817 13.7631 33.1013 11.0652 25.4295 3.48722C18.5772 -3.26599 15.5957 -11.6861 13.1024 -19.7452L13.1198 -19.6937Z" fill="#FF9C22"/>
</g>
<defs>
<clipPath id="clip0_90_272">
<rect width="420" height="420" fill="white" transform="matrix(1 0 0 -1 0 420)"/>
</clipPath>
</defs>
</svg>
