<svg width="28" height="28" viewBox="0 0 28 28" fill="none" xmlns="http://www.w3.org/2000/svg">
<path d="M2 6.98662V21.0134C2 23.7674 4.23257 26 6.98662 26H21.0134C23.7674 26 26 23.7674 26 21.0134V6.98662C26 4.23257 23.7674 2 21.0134 2H6.98662C4.23257 2 2 4.23257 2 6.98662ZM16.5422 20.8001C10.6227 22.8425 5.15747 17.3773 7.1999 11.4578C7.88809 9.46265 9.4625 7.88809 11.4576 7.1999C17.3773 5.15747 22.8425 10.6227 20.8001 16.5424C20.1119 18.5375 18.5375 20.1119 16.5422 20.8001ZM22.3278 6.74287C22.2336 7.23608 21.8255 7.52305 21.4033 7.52305C21.1464 7.52305 20.8845 7.41699 20.6839 7.18687C20.6662 7.1665 20.6497 7.14468 20.635 7.12197C20.428 6.80557 20.4216 6.42969 20.5975 6.12485C20.722 5.90908 20.923 5.75498 21.1637 5.69053C21.4041 5.62578 21.6554 5.65903 21.8709 5.78369C22.1759 5.95947 22.3581 6.28833 22.3373 6.66538C22.3358 6.69116 22.3328 6.71738 22.3278 6.74287Z" fill="#FFC321"/>
<path d="M14 8.16992C10.785 8.16992 8.16968 10.7853 8.16968 14.0003C8.16968 17.2153 10.785 19.8307 14 19.8307C17.2151 19.8307 19.8304 17.2153 19.8304 14.0003C19.8304 10.7853 17.2151 8.16992 14 8.16992Z" fill="#F0D999"/>
</svg>
