<svg width="28" height="28" viewBox="0 0 28 28" fill="none" xmlns="http://www.w3.org/2000/svg">
<path d="M4.01812 2C5.656 2 7.03525 3.37925 7.03525 5.01713C7.03525 6.74119 5.56977 8.07737 4.01812 8.03426C2.42335 8.07737 1.00098 6.74119 1.00098 5.01713C0.95787 3.33613 2.33717 2 4.01812 2Z" fill="white"/>
<path d="M5.69912 26.5695H2.25095C1.77684 26.5695 1.38892 26.1815 1.38892 25.7074V10.6218C1.38892 10.1477 1.73373 9.75977 2.20783 9.75977H5.69907C6.17318 9.75977 6.5611 10.1477 6.5611 10.6218V25.7505C6.56115 26.1815 6.17323 26.5695 5.69912 26.5695Z" fill="white"/>
<path d="M25.957 15.0156C25.957 11.8261 23.5863 9.32617 20.3968 9.32617H19.4917C17.7676 9.32617 16.0866 10.1451 15.1815 11.4813C14.8798 11.783 14.7504 11.9123 14.7504 11.9123V10.1883C14.7504 10.0158 14.4918 9.75721 14.3194 9.75721H10.0092C9.83676 9.75721 9.57812 9.92962 9.57812 10.1451V26.2221C9.57812 26.3946 9.83676 26.567 10.0092 26.567H14.7504C14.9228 26.567 15.1814 26.3946 15.1814 26.2221V16.9121C15.1814 15.3173 16.3882 13.9811 17.983 13.9381C18.8019 13.9381 19.5347 14.2398 20.095 14.8001C20.6122 15.3173 20.8277 16.0501 20.8277 16.869V26.1359C20.8277 26.3083 21.0864 26.5669 21.2588 26.5669H25.569C25.7414 26.5669 26 26.3083 26 26.1359V15.0156H25.957Z" fill="white"/>
</svg>
