<svg width="28" height="28" viewBox="0 0 28 28" fill="none" xmlns="http://www.w3.org/2000/svg">
<path d="M26 20.721V9.2832L19.4849 14.3966L26 20.721Z" fill="#FFC321"/>
<path d="M2 9.26953V20.7422L8.70908 14.4302L2 9.26953Z" fill="#FFC321"/>
<path d="M16.1315 17.0285C14.9434 17.9577 13.2753 17.9582 12.0867 17.0296L9.58876 15.1083L2.24438 22.0182C2.54341 22.5041 3.07317 22.8003 3.64382 22.8007H24.3561C24.9284 22.8005 25.4595 22.5026 25.7581 22.0141L18.6149 15.0801L16.1315 17.0285Z" fill="#FFC321"/>
<path d="M24.3561 6H3.64388C2.73632 6.00107 2.00107 6.73654 2 7.64388V7.88768L12.758 16.1629C13.5502 16.7837 14.6632 16.7845 15.4565 16.1653L26 7.89025V7.64388C25.9989 6.73654 25.2635 6.00107 24.3561 6Z" fill="#F0D999"/>
</svg>
