<svg width="28" height="28" viewBox="0 0 28 28" fill="none" xmlns="http://www.w3.org/2000/svg">
<path d="M11.9498 16.0519C9.65664 13.7588 9.13886 11.4656 9.02163 10.5469C8.98936 10.2928 9.0769 10.0381 9.25857 9.85762L11.1135 8.00273C11.3864 7.72992 11.4349 7.30476 11.2303 6.97754L8.27645 2.38962C8.05008 2.02727 7.5853 1.8965 7.2032 2.08765L2.45995 4.32155C2.15096 4.47369 1.96922 4.80198 2.00431 5.1446C2.25284 7.50567 3.28177 13.3097 8.98601 19.014C14.6903 24.7182 20.4943 25.7472 22.8571 25.9957C23.1997 26.0308 23.528 25.849 23.6801 25.5401L25.914 20.7968C26.1052 20.4147 25.9744 19.9499 25.612 19.7236L21.0237 16.7714C20.6968 16.5668 20.2719 16.6149 19.9989 16.8874L18.144 18.7431C17.9634 18.9249 17.7085 19.0123 17.4544 18.9796C16.536 18.8628 14.2429 18.345 11.9498 16.0519Z" fill="white"/>
</svg>
