<svg width="28" height="28" viewBox="0 0 28 28" fill="none" xmlns="http://www.w3.org/2000/svg">
<path fill-rule="evenodd" clip-rule="evenodd" d="M14 2C20.6274 2 26 7.1254 26 13.4479C26 19.7703 20.6274 24.8957 14 24.8957C12.6607 24.8957 11.3727 24.6862 10.1699 24.3L3.58838 25.9824C3.40702 26.0287 3.22714 25.9827 3.09437 25.8561C2.96154 25.7294 2.91336 25.5578 2.96195 25.3848L4.38912 20.3037C2.88876 18.3926 2 16.0193 2 13.4479C2.00005 7.1254 7.37261 2 14 2ZM12.7475 15.2954C12.1229 14.7007 11.5693 14.0424 11.0988 13.3326C10.927 13.0733 10.9288 12.7619 11.1035 12.5045L11.775 11.5155C11.9182 11.3044 11.9456 11.0635 11.853 10.8281L10.698 7.89134C10.5171 7.43143 9.94463 7.24943 9.51065 7.51393C8.97357 7.84133 8.43639 8.16873 7.89926 8.49608C7.16383 8.94433 6.82243 9.75009 7.02502 10.5599C7.64849 13.0524 9.0084 15.2954 10.888 17.0694C12.7475 18.8625 15.0987 20.1598 17.7114 20.7546C18.5603 20.9479 19.4049 20.6222 19.8748 19.9206C20.218 19.4082 20.5612 18.8957 20.9043 18.3833C21.1816 17.9693 20.9908 17.4232 20.5087 17.2507L17.4303 16.1488C17.1835 16.0604 16.931 16.0865 16.7098 16.2232L15.6731 16.8638C15.4033 17.0305 15.0768 17.0322 14.8051 16.8683C14.061 16.4194 13.3709 15.8913 12.7475 15.2954Z" fill="white"/>
</svg>
